<?xml version="1.0" standalone="no"?>
<!DOCTYPE svg PUBLIC "-//W3C//DTD SVG 20010904//EN"
 "http://www.w3.org/TR/2001/REC-SVG-20010904/DTD/svg10.dtd">
<svg version="1.0" xmlns="http://www.w3.org/2000/svg"
 width="1024.000000pt" height="1024.000000pt" viewBox="0 0 1024.000000 1024.000000"
 preserveAspectRatio="xMidYMid meet">
<metadata>
Created by potrace 1.16, written by Peter Selinger 2001-2019
</metadata>
<g transform="translate(0.000000,1024.000000) scale(0.100000,-0.100000)"
fill="#000000" stroke="none">
<path d="M0 5120 l0 -5120 5120 0 5120 0 0 5120 0 5120 -5120 0 -5120 0 0
-5120z m5030 4703 c0 -5 41 -8 90 -8 50 0 90 3 90 8 0 4 36 7 80 7 44 0 80 -3
80 -7 0 -5 26 -8 57 -8 120 0 433 -32 433 -44 0 -3 19 -7 41 -8 23 -2 76 -10
118 -19 42 -9 105 -22 141 -29 36 -7 90 -20 120 -28 30 -9 89 -25 130 -36 91
-24 163 -48 295 -96 55 -20 125 -46 155 -56 30 -11 75 -29 100 -41 25 -11 70
-32 100 -45 93 -42 281 -137 360 -183 41 -23 95 -53 120 -67 24 -13 47 -27 50
-31 6 -8 30 -24 80 -51 19 -11 44 -27 55 -35 11 -9 45 -32 75 -53 30 -20 63
-45 74 -55 11 -10 23 -18 26 -18 4 0 16 -8 28 -18 11 -10 33 -27 48 -38 29
-21 86 -66 94 -74 3 -3 28 -23 55 -45 28 -22 55 -44 61 -50 6 -5 44 -39 84
-75 94 -83 267 -256 350 -350 36 -40 70 -78 75 -84 6 -6 28 -33 50 -61 22 -27
42 -52 45 -55 8 -8 53 -65 74 -94 11 -15 28 -37 38 -48 10 -12 18 -24 18 -28
0 -3 8 -15 18 -26 10 -11 35 -44 55 -74 20 -30 41 -60 45 -65 21 -26 82 -126
82 -135 0 -6 4 -10 9 -10 4 0 19 -21 33 -47 14 -27 45 -82 68 -123 89 -154
229 -449 267 -560 8 -25 24 -63 34 -85 10 -22 22 -56 28 -75 5 -19 25 -80 45
-134 19 -55 40 -120 45 -145 6 -25 20 -80 32 -121 12 -41 27 -104 34 -140 7
-36 20 -101 29 -145 26 -128 55 -303 55 -335 0 -8 4 -55 8 -105 4 -49 8 -116
8 -148 0 -31 3 -57 8 -57 4 0 7 -40 7 -90 0 -49 -3 -90 -7 -90 -5 0 -8 -31 -8
-70 0 -38 3 -70 8 -70 4 0 7 -40 7 -90 0 -49 -3 -90 -7 -90 -5 0 -8 -26 -8
-57 0 -32 -4 -98 -8 -148 -4 -49 -8 -97 -8 -105 0 -32 -29 -207 -55 -335 -9
-44 -22 -109 -29 -145 -7 -36 -22 -99 -34 -140 -12 -41 -26 -96 -32 -121 -5
-25 -26 -90 -45 -145 -20 -54 -40 -115 -45 -134 -6 -19 -18 -53 -28 -75 -10
-22 -26 -60 -34 -85 -38 -111 -178 -406 -267 -560 -23 -41 -54 -96 -68 -123
-14 -26 -29 -47 -33 -47 -5 0 -9 -4 -9 -10 0 -9 -61 -109 -82 -135 -4 -5 -25
-35 -45 -65 -20 -30 -45 -63 -55 -74 -10 -11 -18 -23 -18 -26 0 -4 -8 -16 -18
-28 -10 -11 -27 -33 -38 -48 -21 -29 -66 -86 -74 -94 -3 -3 -23 -27 -45 -55
-22 -27 -44 -55 -50 -61 -5 -6 -39 -44 -75 -84 -83 -94 -256 -267 -350 -350
-40 -36 -78 -70 -84 -75 -6 -6 -33 -28 -61 -50 -27 -22 -52 -42 -55 -45 -8 -8
-65 -53 -94 -74 -15 -11 -37 -28 -48 -38 -12 -10 -24 -18 -28 -18 -3 0 -15 -8
-26 -18 -11 -10 -44 -35 -74 -55 -30 -21 -64 -44 -75 -53 -11 -8 -36 -24 -55
-35 -50 -27 -74 -43 -80 -51 -3 -4 -26 -18 -50 -31 -25 -14 -74 -41 -110 -62
-73 -42 -287 -150 -370 -188 -30 -14 -81 -36 -112 -51 -31 -14 -61 -26 -65
-26 -5 0 -48 -16 -96 -35 -48 -19 -90 -34 -94 -33 -5 0 -26 -7 -48 -17 -47
-20 -184 -63 -305 -95 -47 -12 -96 -26 -110 -31 -14 -5 -46 -11 -72 -13 -26
-3 -51 -7 -56 -10 -14 -9 -156 -36 -201 -39 -22 -1 -41 -5 -41 -8 0 -5 -35
-11 -165 -25 -81 -9 -216 -19 -268 -19 -31 0 -57 -3 -57 -7 0 -5 -36 -8 -80
-8 -44 0 -80 3 -80 8 0 4 -40 7 -90 7 -49 0 -90 -3 -90 -7 0 -5 -36 -8 -80 -8
-44 0 -80 3 -80 8 0 4 -26 7 -57 7 -52 0 -187 10 -268 19 -130 14 -165 20
-165 25 0 3 -19 7 -41 8 -45 3 -187 30 -201 39 -5 3 -30 7 -56 10 -26 2 -58 8
-72 13 -14 5 -63 19 -110 31 -119 31 -258 74 -305 95 -22 10 -51 19 -64 21
-13 1 -42 12 -65 22 -22 11 -63 27 -91 36 -27 9 -70 26 -95 38 -25 11 -70 32
-100 45 -82 37 -296 146 -370 188 -36 21 -85 48 -110 62 -24 13 -47 27 -50 31
-6 8 -30 24 -80 51 -19 11 -44 27 -55 35 -11 9 -45 32 -75 53 -30 20 -63 45
-74 55 -11 10 -23 18 -26 18 -4 0 -16 8 -28 18 -11 10 -33 27 -48 38 -29 21
-86 66 -94 74 -3 3 -27 23 -55 45 -27 22 -55 44 -61 50 -6 5 -44 39 -84 75
-94 83 -267 256 -350 350 -36 40 -70 78 -75 84 -6 6 -28 34 -50 61 -22 28 -42
52 -45 55 -8 8 -53 65 -74 94 -11 15 -28 37 -38 48 -10 12 -18 24 -18 28 0 3
-8 15 -18 26 -10 11 -35 44 -55 74 -20 30 -41 60 -45 65 -21 26 -82 126 -82
135 0 6 -4 10 -9 10 -4 0 -19 21 -33 48 -14 26 -45 81 -68 122 -45 79 -140
266 -183 360 -13 30 -34 75 -45 100 -12 25 -29 68 -38 95 -9 28 -25 68 -35 90
-10 22 -22 56 -28 75 -5 19 -25 80 -45 134 -19 55 -40 120 -45 145 -6 25 -20
80 -32 121 -12 41 -27 104 -34 140 -7 36 -20 101 -29 145 -26 128 -55 303 -55
335 0 8 -4 56 -8 105 -4 50 -8 116 -8 148 0 31 -3 57 -7 57 -5 0 -8 38 -8 85
0 47 3 85 8 85 4 0 7 36 7 80 0 44 -3 80 -7 80 -5 0 -8 38 -8 85 0 47 3 85 8
85 4 0 7 26 7 57 0 32 4 99 8 148 4 50 8 97 8 105 0 32 29 207 55 335 9 44 22
109 29 145 7 36 22 99 34 140 12 41 26 96 32 121 5 25 26 90 45 145 20 54 40
115 45 134 6 19 18 53 28 75 10 22 26 60 34 85 38 111 178 406 267 560 23 41
54 96 68 123 14 26 29 47 33 47 5 0 9 4 9 10 0 9 61 109 82 135 4 5 25 35 45
65 20 30 45 63 55 74 10 11 18 23 18 26 0 4 8 16 18 28 10 11 27 33 38 48 21
29 66 86 74 94 3 3 23 28 45 55 22 28 44 55 50 61 5 6 39 44 75 84 83 94 256
267 350 350 40 36 78 70 84 75 6 6 34 28 61 50 28 22 52 42 55 45 8 8 65 53
94 74 15 11 37 28 48 38 12 10 24 18 28 18 3 0 15 8 26 18 11 10 44 35 74 55
30 21 64 44 75 53 11 8 36 24 55 35 50 27 74 43 80 51 3 4 26 18 50 31 25 14
79 44 120 67 79 46 267 141 360 183 30 13 75 34 100 45 25 12 70 30 100 41 30
10 100 36 155 56 132 48 204 72 295 96 41 11 100 27 130 36 30 8 84 21 120 28
36 7 99 20 141 29 42 9 95 17 118 19 22 1 41 5 41 8 0 12 313 44 433 44 31 0
57 3 57 8 0 4 36 7 80 7 44 0 80 -3 80 -7z"/>
</g>
</svg>
